<svg id="visual" viewBox="0 0 960 300" width="960" height="300" xmlns="http://www.w3.org/2000/svg" xmlns:xlink="http://www.w3.org/1999/xlink" version="1.1"><rect x="0" y="0" width="960" height="300" fill="#001220"></rect><path d="M0 90L22.8 94C45.7 98 91.3 106 137 107.3C182.7 108.7 228.3 103.3 274 103.8C319.7 104.3 365.3 110.7 411.2 108.8C457 107 503 97 548.8 94.3C594.7 91.7 640.3 96.3 686 99C731.7 101.7 777.3 102.3 823 98.3C868.7 94.3 914.3 85.7 937.2 81.3L960 77L960 0L937.2 0C914.3 0 868.7 0 823 0C777.3 0 731.7 0 686 0C640.3 0 594.7 0 548.8 0C503 0 457 0 411.2 0C365.3 0 319.7 0 274 0C228.3 0 182.7 0 137 0C91.3 0 45.7 0 22.8 0L0 0Z" fill="#f65151"></path><path d="M0 83L22.8 81.5C45.7 80 91.3 77 137 74.8C182.7 72.7 228.3 71.3 274 72.7C319.7 74 365.3 78 411.2 81.3C457 84.7 503 87.3 548.8 83C594.7 78.7 640.3 67.3 686 63.3C731.7 59.3 777.3 62.7 823 67.3C868.7 72 914.3 78 937.2 81L960 84L960 0L937.2 0C914.3 0 868.7 0 823 0C777.3 0 731.7 0 686 0C640.3 0 594.7 0 548.8 0C503 0 457 0 411.2 0C365.3 0 319.7 0 274 0C228.3 0 182.7 0 137 0C91.3 0 45.7 0 22.8 0L0 0Z" fill="#e41975"></path><path d="M0 47L22.8 49.7C45.7 52.3 91.3 57.7 137 61C182.7 64.3 228.3 65.7 274 63.2C319.7 60.7 365.3 54.3 411.2 54.5C457 54.7 503 61.3 548.8 59.7C594.7 58 640.3 48 686 46C731.7 44 777.3 50 823 50.3C868.7 50.7 914.3 45.3 937.2 42.7L960 40L960 0L937.2 0C914.3 0 868.7 0 823 0C777.3 0 731.7 0 686 0C640.3 0 594.7 0 548.8 0C503 0 457 0 411.2 0C365.3 0 319.7 0 274 0C228.3 0 182.7 0 137 0C91.3 0 45.7 0 22.8 0L0 0Z" fill="#b4009e"></path><path d="M0 21L22.8 20C45.7 19 91.3 17 137 16.5C182.7 16 228.3 17 274 19C319.7 21 365.3 24 411.2 25.5C457 27 503 27 548.8 27.3C594.7 27.7 640.3 28.3 686 28.2C731.7 28 777.3 27 823 29.2C868.7 31.3 914.3 36.7 937.2 39.3L960 42L960 0L937.2 0C914.3 0 868.7 0 823 0C777.3 0 731.7 0 686 0C640.3 0 594.7 0 548.8 0C503 0 457 0 411.2 0C365.3 0 319.7 0 274 0C228.3 0 182.7 0 137 0C91.3 0 45.7 0 22.8 0L0 0Z" fill="#2424c7"></path></svg>